<svg width="146" height="32" viewBox="0 0 146 32" fill="none" xmlns="http://www.w3.org/2000/svg">
<g clip-path="url(#clip0_571_51)">
<path d="M31.6012 15.79H42.7979L30.5101 31.39H18.8945L31.6012 15.79Z" fill="#3D387B"/>
<path d="M27.944 0.637207H39.2463L15.0262 31.3902H3.41064L27.944 0.637207Z" fill="#4468B1"/>
<path d="M12.7067 0.411621H23.9033L11.6155 16.0116H0L12.7067 0.411621Z" fill="#0097D6"/>
<path d="M50.3936 7.34961H62.1429C62.307 7.34967 62.4681 7.39385 62.6092 7.47754C62.7504 7.56122 62.8665 7.68133 62.9453 7.82528C63.0241 7.96923 63.0627 8.13172 63.0572 8.29574C63.0516 8.45975 63.0021 8.61926 62.9137 8.75755L52.6041 24.8855H62.3189C62.6179 24.8864 62.9044 25.0059 63.1155 25.2177C63.3267 25.4294 63.4452 25.7163 63.4452 26.0154C63.4452 26.3141 63.3265 26.6006 63.1153 26.8118C62.9041 27.023 62.6176 27.1417 62.3189 27.1417H49.8868C49.7227 27.1416 49.5616 27.0975 49.4204 27.0138C49.2792 26.9301 49.1632 26.81 49.0844 26.666C49.0055 26.5221 48.9669 26.3596 48.9724 26.1956C48.978 26.0316 49.0276 25.8721 49.1159 25.7338L59.415 9.58823H50.3936C50.0974 9.5873 49.8136 9.46896 49.6044 9.25915C49.3953 9.04934 49.2778 8.76517 49.2778 8.46892C49.2778 8.17267 49.3953 7.8885 49.6044 7.67869C49.8136 7.46888 50.0974 7.35054 50.3936 7.34961Z" fill="white"/>
<path d="M84.061 20.9327L84.7861 21.3128C84.885 21.365 84.9723 21.4367 85.0428 21.5235C85.1134 21.6102 85.1657 21.7104 85.1966 21.8179C85.2275 21.9253 85.2363 22.038 85.2226 22.1489C85.209 22.2599 85.173 22.367 85.117 22.4638C84.5757 23.4236 83.8921 24.2958 83.0895 25.0509C82.1853 25.8888 81.1292 26.5459 79.978 26.9868C78.7241 27.4476 77.396 27.6732 76.0604 27.6521C72.8315 27.6521 70.3066 26.5961 68.4856 24.4842C66.7197 22.5115 65.7467 19.9548 65.7542 17.3072C65.729 14.8702 66.5459 12.4992 68.0668 10.5948C70.0238 8.09574 72.6402 6.84619 75.9161 6.84619C79.2904 6.84619 81.989 8.12625 84.0117 10.6864C85.3077 12.3734 86.0535 14.4181 86.1483 16.5434C86.156 16.6594 86.1398 16.7758 86.1006 16.8853C86.0615 16.9948 86.0002 17.0951 85.9206 17.18C85.8411 17.2648 85.7449 17.3324 85.6382 17.3785C85.5314 17.4246 85.4163 17.4483 85.3 17.448H68.3765C68.4211 19.75 69.1556 21.6355 70.58 23.1044C71.2547 23.8186 72.0716 24.3836 72.9778 24.7631C73.8841 25.1425 74.8598 25.3281 75.8421 25.3078C76.8463 25.3081 77.8425 25.1306 78.7847 24.7834C79.6746 24.4663 80.4989 23.9892 81.217 23.3754C81.8988 22.7368 82.4908 22.0085 82.9769 21.2107C83.0893 21.0363 83.2635 20.9108 83.4645 20.8593C83.6655 20.8077 83.8785 20.8339 84.061 20.9327ZM83.3852 15.2446C83.1268 14.0661 82.6205 12.9562 81.8998 11.9887C81.206 11.1443 80.325 10.4731 79.3268 10.0281C78.2446 9.52463 77.0638 9.26852 75.8703 9.27841C74.0508 9.26155 72.2916 9.93004 70.9425 11.151C69.9217 12.0638 69.1532 13.4283 68.637 15.2446H83.3852Z" fill="white"/>
<path d="M91.7591 7.34937H92.6532C92.8725 7.34937 93.0829 7.43651 93.2381 7.59164C93.3932 7.74676 93.4803 7.95715 93.4803 8.17653V10.9115C94.3754 9.66389 95.5292 8.62416 96.8629 7.86326C98.1026 7.18985 99.493 6.84225 100.904 6.85307C102.3 6.82931 103.671 7.22272 104.842 7.98294C105.974 8.71754 106.859 9.77607 107.38 11.0206C107.925 12.2948 108.197 14.2776 108.197 16.9691V26.5466C108.197 26.7044 108.134 26.8557 108.023 26.9673C107.911 27.0788 107.76 27.1415 107.602 27.1415H106.247C106.089 27.1415 105.938 27.0788 105.826 26.9673C105.715 26.8557 105.652 26.7044 105.652 26.5466V17.7012C105.652 15.4204 105.557 13.8951 105.367 13.1254C105.165 11.9717 104.564 10.9255 103.67 10.1688C102.724 9.47225 101.567 9.12185 100.393 9.17617C98.8745 9.16949 97.4044 9.71203 96.254 10.7038C95.0675 11.6758 94.2227 13.0016 93.8429 14.4876C93.6082 15.4708 93.4909 17.266 93.4909 19.873V26.5466C93.4909 26.7044 93.4282 26.8557 93.3167 26.9673C93.2051 27.0788 93.0538 27.1415 92.896 27.1415H91.5162C91.3585 27.1415 91.2072 27.0788 91.0956 26.9673C90.9841 26.8557 90.9214 26.7044 90.9214 26.5466V8.17653C90.9214 8.06701 90.9431 7.95858 90.9853 7.85753C91.0276 7.75648 91.0895 7.66482 91.1674 7.58787C91.2453 7.51092 91.3377 7.45022 91.4393 7.40927C91.5409 7.36833 91.6496 7.34797 91.7591 7.34937Z" fill="white"/>
<path d="M116.606 0H117.69C117.884 0 118.07 0.0771348 118.207 0.214436C118.345 0.351736 118.422 0.537956 118.422 0.732129V7.34945H121.727C121.824 7.34943 121.921 7.36882 122.01 7.40649C122.1 7.44416 122.181 7.49935 122.25 7.56884C122.318 7.63832 122.371 7.7207 122.407 7.81115C122.443 7.90161 122.461 7.99833 122.459 8.09565V8.8313C122.459 8.92745 122.44 9.02265 122.403 9.11148C122.367 9.2003 122.313 9.28101 122.245 9.349C122.177 9.41698 122.096 9.47091 122.007 9.5077C121.918 9.54449 121.823 9.56343 121.727 9.56343H118.422V26.3989C118.422 26.593 118.345 26.7793 118.207 26.9166C118.07 27.0539 117.884 27.131 117.69 27.131H116.606C116.509 27.131 116.414 27.1121 116.325 27.0753C116.237 27.0385 116.156 26.9845 116.088 26.9166C116.02 26.8486 115.966 26.7679 115.929 26.679C115.892 26.5902 115.873 26.495 115.873 26.3989V9.54935H113.132C112.937 9.54935 112.751 9.47222 112.614 9.33492C112.477 9.19762 112.399 9.0114 112.399 8.81722V8.09565C112.399 7.90148 112.477 7.71526 112.614 7.57796C112.751 7.44066 112.937 7.36352 113.132 7.36352H115.873V0.732129C115.873 0.537956 115.951 0.351736 116.088 0.214436C116.225 0.0771348 116.411 0 116.606 0V0Z" fill="white"/>
<path d="M146 8.12049V26.3709C146 26.5754 145.919 26.7714 145.774 26.916C145.63 27.0606 145.434 27.1418 145.229 27.1418H144.261C144.057 27.1418 143.861 27.0606 143.716 26.916C143.572 26.7714 143.49 26.5754 143.49 26.3709V23.7416C142.515 24.9631 141.29 25.9617 139.897 26.6701C138 27.577 135.866 27.8654 133.796 27.4947C131.727 27.124 129.826 26.1129 128.362 24.604C127.395 23.6316 126.633 22.4745 126.122 21.2016C125.611 19.9287 125.361 18.566 125.388 17.1947C125.382 14.5003 126.426 11.9097 128.299 9.97193C129.231 8.96764 130.364 8.16999 131.624 7.63041C132.884 7.09084 134.242 6.82132 135.613 6.83926C137.146 6.81821 138.661 7.17481 140.023 7.87762C141.407 8.62848 142.595 9.69438 143.49 10.9892V8.12049C143.49 7.91604 143.572 7.71998 143.716 7.57541C143.861 7.43085 144.057 7.34964 144.261 7.34964H145.229C145.434 7.34964 145.63 7.43085 145.774 7.57541C145.919 7.71998 146 7.91604 146 8.12049ZM135.821 9.29612C134.436 9.28611 133.074 9.65082 131.879 10.3516C130.684 11.0524 129.701 12.0633 129.034 13.2771C128.334 14.4928 127.966 15.871 127.966 17.2739C127.966 18.6767 128.334 20.0549 129.034 21.2707C129.709 22.5023 130.703 23.5288 131.913 24.2414C133.084 24.938 134.423 25.3031 135.785 25.2974C137.176 25.2966 138.542 24.9326 139.749 24.2414C140.956 23.5768 141.953 22.5881 142.628 21.3868C143.312 20.1473 143.66 18.7508 143.638 17.3355C143.666 16.2803 143.481 15.2303 143.095 14.2478C142.71 13.2653 142.131 12.3702 141.392 11.6157C140.675 10.8643 139.809 10.2701 138.85 9.87076C137.891 9.47146 136.859 9.27578 135.821 9.29612Z" fill="white"/>
</g>
<defs>
<clipPath id="clip0_571_51">
<rect width="146" height="31.39" fill="white"/>
</clipPath>
</defs>
</svg>
